<svg width="24" height="24" viewBox="0 0 24 24" fill="none" xmlns="http://www.w3.org/2000/svg">
<path d="M2.79255 19.4L4.13255 19.96V10.93L1.70255 16.79C1.29255 17.81 1.78255 18.98 2.79255 19.4ZM22.2926 15.7L17.3326 3.73C17.0225 2.98 16.2926 2.52 15.5226 2.5C15.2626 2.5 14.9926 2.54 14.7326 2.65L7.36255 5.7C6.61255 6.01 6.15255 6.73 6.13255 7.5C6.12255 7.77 6.17255 8.04 6.28255 8.3L11.2425 20.27C11.5526 21.03 12.2926 21.49 13.0726 21.5C13.3326 21.5 13.5926 21.45 13.8426 21.35L21.2026 18.3C22.2226 17.88 22.7126 16.71 22.2926 15.7ZM13.0926 19.5L8.13255 7.54L15.4826 4.5H15.4925L20.4426 16.45L13.0926 19.5Z" fill="#70767F"/>
<path d="M11.2626 9.75C11.8148 9.75 12.2626 9.30228 12.2626 8.75C12.2626 8.19772 11.8148 7.75 11.2626 7.75C10.7103 7.75 10.2626 8.19772 10.2626 8.75C10.2626 9.30228 10.7103 9.75 11.2626 9.75Z" fill="#70767F"/>
<path d="M6.14255 19.5C6.14255 20.6 7.04255 21.5 8.14255 21.5H9.59255L6.14255 13.16V19.5Z" fill="#70767F"/>
</svg>
