<svg width="18" height="21" viewBox="0 0 18 21" fill="none" xmlns="http://www.w3.org/2000/svg">
<path d="M14.5 2.5V3H15H16C16.8239 3 17.5 3.67614 17.5 4.5V18.5C17.5 19.3239 16.8239 20 16 20H2C1.16783 20 0.500095 19.3256 0.5 18.5002C0.5 18.5001 0.5 18.5001 0.5 18.5L0.51 4.50036V4.5C0.51 3.67123 1.17103 3 2 3H3H3.5V2.5V1H4.5V2.5V3H5H13H13.5V2.5V1H14.5V2.5ZM16 19H16.5V18.5V8.5V8H16H2H1.5V8.5V18.5V19H2H16ZM16 7H16.5V6.5V4.5V4H16H2H1.5V4.5V6.5V7H2H16ZM4.5 12V11H5.5V12H4.5ZM9.5 12H8.5V11H9.5V12ZM12.5 12V11H13.5V12H12.5ZM4.5 16V15H5.5V16H4.5ZM9.5 16H8.5V15H9.5V16ZM12.5 16V15H13.5V16H12.5Z" fill="#2A292F" stroke="#2A292F"/>
</svg>
