<svg width="16" height="5" viewBox="0 0 16 5" fill="none" xmlns="http://www.w3.org/2000/svg">
<path d="M0.5 2.5C0.5 1.67614 1.17614 1 2 1C2.82386 1 3.5 1.67614 3.5 2.5C3.5 3.32386 2.82386 4 2 4C1.17614 4 0.5 3.32386 0.5 2.5ZM12.5 2.5C12.5 1.67614 13.1761 1 14 1C14.8239 1 15.5 1.67614 15.5 2.5C15.5 3.32386 14.8239 4 14 4C13.1761 4 12.5 3.32386 12.5 2.5ZM6.5 2.5C6.5 1.67614 7.17614 1 8 1C8.82386 1 9.5 1.67614 9.5 2.5C9.5 3.32386 8.82386 4 8 4C7.17614 4 6.5 3.32386 6.5 2.5Z" fill="#2A292F" stroke="#2A292F"/>
</svg>
