<svg width="388" height="348" viewBox="0 0 388 348" fill="none" xmlns="http://www.w3.org/2000/svg">
<path d="M184.702 40.1933C232.705 45.6867 253.773 3.10756 301.347 8.68267C343.801 13.6553 373.082 44.6044 363.172 86.2849C354.37 123.289 312.464 134.899 297.564 169.564C281.766 206.323 269.521 245.931 221.817 258.725C128.156 283.844 82.6577 165.929 76.2805 98.201C73.8354 72.2042 69.564 10.0509 102.737 2.00479C136.12 -6.10261 155.291 36.8237 184.702 40.1933Z" fill="#30B77D"/>
<path opacity="0.9" d="M184.702 40.1933C232.705 45.6867 253.773 3.10756 301.347 8.68267C343.801 13.6553 373.082 44.6044 363.172 86.2849C354.37 123.289 312.464 134.899 297.564 169.564C281.766 206.323 269.521 245.931 221.817 258.725C128.156 283.844 82.6577 165.929 76.2805 98.201C73.8354 72.2042 69.564 10.0509 102.737 2.00479C136.12 -6.10261 155.291 36.8237 184.702 40.1933Z" fill="white"/>
<path d="M194.213 346.988C301.08 346.988 387.713 341.813 387.713 335.429C387.713 329.046 301.08 323.871 194.213 323.871C87.3457 323.871 0.71283 329.046 0.71283 335.429C0.71283 341.813 87.3457 346.988 194.213 346.988Z" fill="#F5F5F5"/>
<path d="M48.6249 117.039L47.6295 117.112L48.9552 135.943L49.9506 135.87L48.6249 117.039Z" fill="#30B77D"/>
<path d="M50.6269 145.591L49.6315 145.665L50.1306 152.753L51.126 152.68L50.6269 145.591Z" fill="#30B77D"/>
<path d="M281.746 232.218H68.0172C65.6381 232.174 63.359 231.231 61.6195 229.57C59.8799 227.909 58.8029 225.648 58.5961 223.222L48.0973 74.0116C47.9996 72.8608 48.1387 71.7019 48.5054 70.6095C48.8721 69.5171 49.4584 68.5153 50.2265 67.6688C50.9947 66.8223 51.9276 66.1498 52.9651 65.6947C54.0027 65.2395 55.122 65.0117 56.2509 65.026H269.98C272.358 65.0695 274.635 66.0115 276.375 67.6704C278.114 69.3294 279.192 71.5881 279.401 74.0116L289.9 223.222C289.998 224.374 289.858 225.533 289.492 226.626C289.125 227.719 288.539 228.721 287.771 229.568C287.003 230.416 286.07 231.089 285.033 231.546C283.995 232.002 282.876 232.231 281.746 232.218Z" fill="#30B77D"/>
<path d="M282.565 232.218H68.8355C66.4564 232.174 64.1774 231.231 62.4378 229.57C60.6982 227.909 59.6212 225.648 59.4145 223.222L48.9157 74.0116C48.818 72.8608 48.957 71.7019 49.3237 70.6095C49.6905 69.5171 50.2768 68.5153 51.0449 67.6688C51.813 66.8223 52.7459 66.1498 53.7835 65.6947C54.8211 65.2395 55.9404 65.0117 57.0692 65.026H270.798C273.176 65.0695 275.454 66.0115 277.193 67.6704C278.932 69.3294 280.01 71.5881 280.219 74.0116L290.718 223.222C290.817 224.374 290.68 225.534 290.313 226.628C289.947 227.721 289.361 228.724 288.593 229.572C287.825 230.419 286.891 231.093 285.853 231.549C284.815 232.005 283.694 232.233 282.565 232.218Z" fill="#30B77D"/>
<path opacity="0.5" d="M282.565 232.218H68.8355C66.4564 232.174 64.1774 231.231 62.4378 229.57C60.6982 227.909 59.6212 225.648 59.4145 223.222L48.9157 74.0116C48.818 72.8608 48.957 71.7019 49.3237 70.6095C49.6905 69.5171 50.2768 68.5153 51.0449 67.6688C51.813 66.8223 52.7459 66.1498 53.7835 65.6947C54.8211 65.2395 55.9404 65.0117 57.0692 65.026H270.798C273.176 65.0695 275.454 66.0115 277.193 67.6704C278.932 69.3294 280.01 71.5881 280.219 74.0116L290.718 223.222C290.817 224.374 290.68 225.534 290.313 226.628C289.947 227.721 289.361 228.724 288.593 229.572C287.825 230.419 286.891 231.093 285.853 231.549C284.815 232.005 283.694 232.233 282.565 232.218Z" fill="white"/>
<path d="M271.118 69.5186H57.3886H56.67C51.211 69.978 52.3288 78.4837 57.8377 78.4837H271.926C277.445 78.4837 277.365 69.978 271.836 69.5186H271.118Z" fill="#30B77D"/>
<path d="M62.9574 74.0116C62.9784 74.2748 62.9451 74.5396 62.8599 74.7889C62.7747 75.0382 62.6392 75.2665 62.4624 75.4589C62.2856 75.6513 62.0714 75.8037 61.8334 75.9062C61.5955 76.0086 61.3392 76.0589 61.0811 76.0538C60.5387 76.046 60.0184 75.833 59.6203 75.4559C59.2223 75.0788 58.9748 74.5643 58.9255 74.0116C58.9046 73.7492 58.9375 73.4853 59.0222 73.2367C59.1069 72.9881 59.2414 72.7604 59.4171 72.5681C59.5928 72.3758 59.8058 72.2233 60.0426 72.1202C60.2793 72.0171 60.5345 71.9657 60.7917 71.9694C61.3359 71.9747 61.8587 72.1866 62.2589 72.5639C62.659 72.9412 62.9079 73.4571 62.9574 74.0116Z" fill="#FAFAFA"/>
<path d="M69.8135 74.0116C69.8345 74.2748 69.8013 74.5396 69.7161 74.7889C69.6308 75.0382 69.4954 75.2665 69.3186 75.4589C69.1418 75.6513 68.9275 75.8037 68.6896 75.9062C68.4517 76.0086 68.1954 76.0589 67.9373 76.0538C67.3949 76.046 66.8745 75.833 66.4765 75.4559C66.0784 75.0788 65.8309 74.5643 65.7817 74.0116C65.7608 73.7492 65.7937 73.4853 65.8784 73.2367C65.963 72.9881 66.0975 72.7604 66.2732 72.5681C66.449 72.3758 66.662 72.2233 66.8987 72.1202C67.1355 72.0171 67.3907 71.9657 67.6479 71.9694C68.1921 71.9747 68.7149 72.1866 69.115 72.5639C69.5152 72.9412 69.7641 73.4571 69.8135 74.0116Z" fill="#FAFAFA"/>
<path d="M76.6598 74.0118C76.6806 74.2742 76.6477 74.5381 76.563 74.7867C76.4784 75.0352 76.3439 75.263 76.1682 75.4553C75.9925 75.6476 75.7794 75.8001 75.5427 75.9032C75.3059 76.0063 75.0508 76.0577 74.7935 76.0539C74.2504 76.0484 73.7288 75.8362 73.3303 75.4587C72.9318 75.0812 72.6849 74.5654 72.6378 74.0118C72.6154 73.7491 72.6472 73.4845 72.7313 73.2352C72.8154 72.9859 72.9498 72.7575 73.1258 72.5649C73.3019 72.3722 73.5156 72.2197 73.753 72.1171C73.9905 72.0146 74.2464 71.9643 74.5041 71.9696C75.0465 71.9774 75.5669 72.1904 75.9649 72.5675C76.363 72.9446 76.6105 73.4591 76.6598 74.0118Z" fill="#FAFAFA"/>
<path d="M276.896 217.331H72.4582C71.5946 217.316 70.7671 216.974 70.1364 216.37C69.5057 215.766 69.1167 214.944 69.0451 214.063L60.4125 91.3598C60.3741 90.9388 60.4236 90.5142 60.5579 90.1142C60.6921 89.7142 60.908 89.3481 61.1912 89.04C61.4743 88.732 61.8183 88.4891 62.2002 88.3274C62.5822 88.1658 62.9933 88.0892 63.4065 88.1026H267.894C268.757 88.1147 269.584 88.455 270.215 89.0571C270.846 89.6593 271.236 90.4801 271.307 91.3598L279.95 214.063C279.987 214.49 279.935 214.92 279.797 215.324C279.659 215.728 279.438 216.097 279.148 216.407C278.859 216.716 278.508 216.959 278.12 217.118C277.732 217.277 277.314 217.35 276.896 217.331Z" fill="white"/>
<path d="M190.75 170.585L187.416 123.289L177.337 117.081H149.583L153.355 170.585H190.75Z" fill="white"/>
<path d="M190.75 171.076H153.355C153.231 171.079 153.111 171.032 153.02 170.947C152.929 170.861 152.874 170.743 152.866 170.616L149.104 117.112C149.099 117.044 149.108 116.977 149.13 116.914C149.153 116.85 149.188 116.792 149.233 116.744C149.278 116.694 149.331 116.653 149.391 116.625C149.452 116.597 149.517 116.582 149.583 116.581H177.337C177.424 116.584 177.51 116.608 177.586 116.652L187.666 122.86C187.734 122.9 187.791 122.956 187.833 123.024C187.875 123.091 187.9 123.168 187.906 123.248L191.219 170.545C191.226 170.614 191.218 170.683 191.195 170.749C191.173 170.814 191.137 170.873 191.089 170.923C191.046 170.97 190.993 171.009 190.935 171.035C190.877 171.061 190.814 171.075 190.75 171.076ZM153.824 170.055H190.221L186.947 123.544L177.247 117.571H150.102L153.824 170.055Z" fill="#30B77D"/>
<path d="M187.417 123.289L177.337 117.081L181.039 125.311L187.417 123.289Z" fill="#EBEBEB"/>
<path d="M181.039 125.801C180.947 125.8 180.857 125.773 180.78 125.723C180.702 125.672 180.64 125.6 180.6 125.515L176.898 117.285C176.855 117.188 176.842 117.08 176.862 116.976C176.881 116.872 176.932 116.776 177.007 116.703C177.087 116.634 177.185 116.592 177.289 116.582C177.393 116.573 177.497 116.598 177.586 116.652L187.666 122.86C187.747 122.91 187.813 122.983 187.855 123.07C187.898 123.156 187.915 123.254 187.906 123.35C187.893 123.444 187.854 123.533 187.794 123.605C187.734 123.677 187.655 123.731 187.566 123.759L181.179 125.801H181.039ZM178.435 118.327L181.299 124.708L186.289 123.146L178.435 118.327Z" fill="#30B77D"/>
<path d="M165.271 141.179C165.286 141.456 165.245 141.734 165.152 141.995C165.058 142.256 164.914 142.494 164.727 142.696C164.54 142.898 164.315 143.058 164.065 143.168C163.816 143.277 163.547 143.334 163.275 143.333C162.705 143.323 162.16 143.097 161.743 142.699C161.327 142.301 161.069 141.759 161.02 141.179C160.994 140.898 161.027 140.615 161.117 140.349C161.206 140.083 161.35 139.839 161.539 139.634C161.728 139.429 161.957 139.268 162.212 139.161C162.467 139.054 162.741 139.004 163.016 139.014C163.586 139.027 164.132 139.255 164.548 139.655C164.965 140.054 165.222 140.597 165.271 141.179Z" fill="#30B77D"/>
<path d="M178.944 141.178C178.968 141.458 178.934 141.74 178.843 142.005C178.753 142.27 178.609 142.512 178.42 142.716C178.231 142.92 178.003 143.08 177.749 143.186C177.495 143.293 177.222 143.343 176.948 143.333C176.377 143.323 175.83 143.097 175.412 142.699C174.994 142.302 174.734 141.76 174.682 141.178C174.666 140.9 174.705 140.621 174.798 140.359C174.891 140.097 175.036 139.857 175.223 139.654C175.41 139.452 175.635 139.29 175.886 139.18C176.136 139.07 176.406 139.013 176.678 139.014C177.251 139.022 177.801 139.248 178.22 139.648C178.638 140.049 178.896 140.594 178.944 141.178Z" fill="#30B77D"/>
<path d="M182.816 155.208C182.694 155.206 182.578 155.158 182.49 155.073C182.401 154.988 182.347 154.872 182.337 154.748C182.087 151.267 176.758 148.438 170.461 148.438C166.279 148.438 162.527 149.715 160.67 151.757C160.289 152.133 159.99 152.588 159.794 153.092C159.598 153.595 159.509 154.136 159.533 154.677C159.537 154.744 159.529 154.811 159.508 154.875C159.487 154.939 159.454 154.998 159.411 155.048C159.324 155.151 159.201 155.214 159.069 155.223C158.936 155.233 158.806 155.188 158.706 155.099C158.605 155.01 158.544 154.884 158.535 154.748C158.505 154.072 158.614 153.396 158.855 152.765C159.095 152.133 159.462 151.56 159.932 151.083C161.928 148.847 165.99 147.448 170.431 147.448C177.347 147.448 182.985 150.623 183.265 154.677C183.269 154.741 183.261 154.806 183.24 154.867C183.22 154.928 183.188 154.984 183.146 155.033C183.104 155.081 183.054 155.121 182.997 155.149C182.94 155.177 182.879 155.194 182.816 155.198V155.208Z" fill="#30B77D"/>
<path d="M157.457 136.808C157.335 136.806 157.218 136.759 157.128 136.676C157.037 136.582 156.986 136.455 156.986 136.323C156.986 136.191 157.037 136.065 157.128 135.971L159.253 133.633C159.344 133.543 159.466 133.493 159.593 133.493C159.719 133.493 159.841 133.543 159.932 133.633C159.977 133.678 160.012 133.732 160.036 133.792C160.06 133.852 160.073 133.915 160.073 133.98C160.073 134.044 160.06 134.108 160.036 134.168C160.012 134.227 159.977 134.282 159.932 134.327L157.806 136.665C157.76 136.712 157.706 136.749 157.646 136.773C157.586 136.798 157.522 136.81 157.457 136.808Z" fill="#30B77D"/>
<path d="M181.818 136.808C181.697 136.802 181.581 136.756 181.488 136.676L179.043 134.337C178.997 134.292 178.961 134.237 178.935 134.176C178.91 134.116 178.897 134.051 178.897 133.985C178.897 133.919 178.91 133.854 178.935 133.794C178.961 133.733 178.997 133.678 179.043 133.633C179.135 133.543 179.256 133.493 179.383 133.493C179.509 133.493 179.631 133.543 179.722 133.633L182.167 135.971C182.212 136.017 182.247 136.071 182.271 136.13C182.296 136.19 182.308 136.254 182.308 136.318C182.308 136.383 182.296 136.447 182.271 136.506C182.247 136.566 182.212 136.62 182.167 136.665C182.072 136.756 181.948 136.807 181.818 136.808Z" fill="#30B77D"/>
<path d="M297.694 87.1423C298.582 86.6828 299.69 86.1212 300.628 85.5392C301.566 84.9572 302.624 84.3956 303.622 83.783C305.568 82.5474 307.544 81.3324 309.411 79.9845C313.159 77.3605 316.672 74.4014 319.909 71.142C320.319 70.7539 320.678 70.3251 321.067 69.9064L321.636 69.2836L321.915 68.9773L322.055 68.8139C321.915 69.0896 322.055 69.0079 322.055 68.7424C322.143 68.3778 322.193 68.0047 322.205 67.6294C322.182 65.4583 321.938 63.2955 321.476 61.1762C320.588 56.6017 319.241 51.8843 317.914 47.269L321.786 45.5332C324.23 49.9613 326.271 54.6097 327.883 59.4199C328.789 62.0194 329.366 64.7269 329.6 67.4763C329.661 68.3311 329.634 69.1901 329.52 70.0392C329.372 71.2398 328.955 72.3894 328.303 73.3985L328.133 73.6334L328.003 73.7968L327.853 73.9908L327.544 74.3788L326.925 75.1446C326.516 75.6449 326.117 76.1657 325.678 76.6456C322.265 80.5205 318.458 84.0119 314.321 87.0606C312.325 88.5718 310.209 90.0218 308.043 91.339C306.976 92.0027 305.888 92.6357 304.78 93.2586C303.672 93.8815 302.594 94.4533 301.317 95.0659L297.694 87.1423Z" fill="#FF9800"/>
<path d="M288.812 327.199C289.559 327.18 290.302 327.077 291.028 326.892C291.064 326.881 291.098 326.86 291.124 326.831C291.15 326.803 291.169 326.767 291.177 326.729C291.182 326.69 291.176 326.65 291.161 326.614C291.145 326.578 291.119 326.547 291.088 326.525C290.798 326.331 288.263 324.656 287.285 325.106C287.177 325.157 287.084 325.237 287.015 325.338C286.947 325.438 286.906 325.555 286.896 325.677C286.857 325.87 286.867 326.07 286.924 326.257C286.982 326.445 287.086 326.614 287.225 326.749C287.684 327.091 288.248 327.25 288.812 327.199ZM290.459 326.607C289.012 326.903 287.914 326.852 287.465 326.453C287.375 326.359 287.31 326.244 287.275 326.117C287.24 325.99 287.237 325.857 287.265 325.728C287.269 325.674 287.287 325.622 287.316 325.577C287.346 325.532 287.387 325.496 287.435 325.473C287.964 325.238 289.431 325.994 290.459 326.607Z" fill="#30B77D"/>
<path d="M291.018 326.893H291.118C291.147 326.874 291.171 326.849 291.189 326.819C291.206 326.788 291.216 326.754 291.217 326.719C291.217 326.607 291.217 324.146 290.299 323.329C290.189 323.221 290.057 323.139 289.911 323.091C289.766 323.044 289.612 323.031 289.461 323.053C289.303 323.055 289.151 323.111 289.03 323.213C288.908 323.315 288.824 323.457 288.792 323.615C288.603 324.636 290.12 326.423 290.918 326.893C290.951 326.902 290.985 326.902 291.018 326.893ZM289.591 323.431C289.753 323.432 289.909 323.493 290.03 323.605C290.556 324.399 290.828 325.341 290.808 326.3C290.01 325.647 289.062 324.258 289.181 323.676C289.181 323.584 289.251 323.462 289.501 323.431H289.591Z" fill="#30B77D"/>
<path d="M290.239 61.605C289.241 66.7104 287.245 76.9212 290.688 80.3418C290.688 80.3418 289.331 85.4473 280.12 85.4473C269.98 85.4473 275.279 80.3418 275.279 80.3418C280.808 78.994 280.659 74.7974 279.701 70.8458L290.239 61.605Z" fill="#FF9800"/>
<path d="M273.333 82.3842C271.747 82.6089 273.104 78.3918 273.743 77.9527C275.239 76.9316 294.561 75.5123 294.431 77.9527C294.351 78.9738 293.872 81.016 293.034 81.6899C292.195 82.3638 287.225 80.2604 273.333 82.3842Z" fill="#001D3D"/>
<path d="M276.487 80.9341C275.22 81.3731 275.339 77.1254 275.768 76.6149C276.766 75.4304 292.405 71.3257 292.864 73.6435C293.044 74.6646 293.133 76.7068 292.595 77.4318C292.056 78.1567 287.465 76.962 276.487 80.9341Z" fill="#001D3D"/>
<path d="M270.669 52.4563C270.606 52.4591 270.543 52.4467 270.486 52.4201C270.429 52.3935 270.379 52.3534 270.339 52.3032C270.035 51.9014 269.642 51.5784 269.193 51.3602C268.744 51.1421 268.251 51.0349 267.755 51.0472C267.703 51.0543 267.65 51.0507 267.599 51.0364C267.549 51.0221 267.502 50.9976 267.461 50.9642C267.42 50.9308 267.386 50.8893 267.361 50.8422C267.336 50.795 267.32 50.7432 267.315 50.6899C267.307 50.5847 267.339 50.4802 267.404 50.3984C267.469 50.3165 267.562 50.2636 267.665 50.2508C268.293 50.218 268.92 50.3411 269.491 50.6095C270.063 50.878 270.563 51.2839 270.948 51.7926C271.015 51.8755 271.047 51.982 271.038 52.089C271.029 52.196 270.978 52.295 270.898 52.3644C270.83 52.4142 270.751 52.4458 270.669 52.4563Z" fill="#001D3D"/>
<path d="M268.733 57.4492C268.28 59.0782 267.608 60.6349 266.737 62.0747C267.103 62.29 267.51 62.4208 267.931 62.4578C268.352 62.4949 268.775 62.4373 269.172 62.2892L268.733 57.4492Z" fill="#EF5350"/>
<path d="M269.222 56.2137C269.292 56.8978 268.982 57.49 268.543 57.5309C268.104 57.5717 267.695 57.0612 267.635 56.3669C267.575 55.6725 267.874 55.0905 268.304 55.0497C268.733 55.0088 269.152 55.5193 269.222 56.2137Z" fill="#001D3D"/>
<path d="M268.503 55.0704L266.846 54.7539C266.846 54.7539 267.795 55.9588 268.503 55.0704Z" fill="#001D3D"/>
<path d="M300.698 326.699H292.335L292.994 306.89H301.357L300.698 326.699Z" fill="#FF9800"/>
<path d="M291.676 325.708H301.067C301.229 325.704 301.387 325.761 301.51 325.869C301.634 325.976 301.714 326.126 301.736 326.29L302.804 333.887C302.825 334.079 302.806 334.274 302.749 334.458C302.691 334.642 302.596 334.811 302.469 334.955C302.343 335.099 302.188 335.214 302.015 335.292C301.843 335.37 301.656 335.41 301.467 335.408C298.193 335.357 296.616 335.153 292.485 335.153C289.94 335.153 286.227 335.429 282.724 335.429C279.221 335.429 279.022 331.876 280.489 331.559C287.036 330.109 288.074 328.128 290.279 326.229C290.672 325.895 291.166 325.711 291.676 325.708Z" fill="#001D3D"/>
<g opacity="0.2">
<path d="M301.357 306.89H292.994L292.654 317.1H301.018L301.357 306.89Z" fill="#2A292F"/>
</g>
<path d="M267.435 92.1662C262.318 90.1304 257.305 87.83 252.415 85.2739C247.365 82.7491 242.554 79.7514 238.044 76.319C236.84 75.3533 235.699 74.306 234.631 73.1843C234.352 72.8779 234.072 72.592 233.803 72.2346C233.487 71.8694 233.193 71.484 232.925 71.0808C232.189 69.9838 231.729 68.7175 231.587 67.3947C231.477 66.1407 231.645 64.8774 232.076 63.6984C232.422 62.7507 232.896 61.8572 233.484 61.0436C234.448 59.6948 235.586 58.4857 236.867 57.4494C239.128 55.6071 241.57 54.0091 244.152 52.6809C245.39 52.007 246.647 51.4046 247.925 50.843C249.202 50.2814 250.459 49.7504 251.827 49.2705L253.593 53.2017C249.242 56.0096 244.731 59.1035 241.418 62.5548C240.676 63.3235 240.023 64.1766 239.472 65.0973C238.993 65.9039 239.003 66.5064 239.082 66.4553C239.162 66.4043 239.082 66.4553 239.222 66.5574L239.621 66.9965C239.771 67.1803 239.981 67.3641 240.17 67.5581C241.016 68.3541 241.912 69.091 242.855 69.7636C244.915 71.256 247.061 72.6199 249.282 73.848C251.527 75.1345 253.843 76.3496 256.198 77.5136C260.908 79.8213 265.779 82.037 270.559 84.0588L267.435 92.1662Z" fill="#FF9800"/>
<path d="M256.088 50.4549L257.465 47.3916L251.158 45.1963C251.158 45.1963 249.162 51.2309 251.527 54.0082C252.516 53.849 253.45 53.4409 254.246 52.8207C255.042 52.2004 255.675 51.3874 256.088 50.4549Z" fill="#FF9800"/>
<path d="M257.435 40.7647L252.416 39.2739L251.158 45.1554L257.435 47.3915V40.7647Z" fill="#FF9800"/>
<path d="M322.305 47.6876L323.033 40.54L316.566 42.1329C316.566 42.1329 316.466 48.8516 319.889 49.9136L322.305 47.6876Z" fill="#FF9800"/>
<path d="M319.919 35.5063L315.698 37.5179L316.566 42.0821L323.033 40.5199L319.919 35.5063Z" fill="#FF9800"/>
<path d="M291.557 51.5781C291.866 60.0633 292.165 63.6473 288.423 68.3953C282.784 75.5429 272.535 74.0624 269.761 65.8426C267.266 58.45 267.186 45.8192 274.93 41.6532C276.633 40.7269 278.538 40.2612 280.466 40.3001C282.394 40.339 284.281 40.8814 285.946 41.8756C287.612 42.8699 289.002 44.2831 289.983 45.9811C290.965 47.6792 291.507 49.6058 291.557 51.5781Z" fill="#FF9800"/>
<path d="M287.944 68.3854C296.088 64.781 301.437 57.1535 299.181 45.3293C297.016 33.9851 289.531 32.8619 286.437 35.2104C283.343 37.5589 275.629 34.0566 270.998 38.0388C263.014 44.9515 270.559 52.334 274.511 56.7961C276.866 61.7586 279.96 71.9081 287.944 68.3854Z" fill="#001D3D"/>
<path d="M284.561 43.2974C285.554 44.6012 286.899 45.5789 288.429 46.1097C289.96 46.6406 291.608 46.7013 293.172 46.2845C294.735 45.8676 296.146 44.9914 297.228 43.764C298.311 42.5366 299.018 41.0118 299.263 39.3777C299.508 37.7436 299.281 36.0718 298.608 34.5687C297.935 33.0656 296.847 31.797 295.477 30.9194C294.108 30.0419 292.517 29.5938 290.902 29.6305C289.287 29.6672 287.717 30.1871 286.387 31.1261C284.568 32.4927 283.354 34.5425 283.011 36.8249C282.669 39.1072 283.226 41.4353 284.561 43.2974Z" fill="#30B77D"/>
<path d="M286.676 36.0067C285.509 29.1655 291.826 23.8967 300.289 26.4392C308.752 28.9817 304.281 36.65 302.535 42.7765C300.788 48.903 305.359 54.7436 307.255 50.0772C309.151 45.4109 305.958 43.9507 305.958 43.9507C305.958 43.9507 314.939 46.3298 306.596 56.6938C298.253 67.0578 290.698 55.6115 292.744 48.8621C294.401 43.4402 287.784 42.4702 286.676 36.0067Z" fill="#001D3D"/>
<path d="M278.223 38.59C274.361 36.5479 267.824 34.8631 264.102 41.2755C262.346 44.3387 263.024 48.4231 263.024 48.4231L274.391 49.1889L278.223 38.59Z" fill="#001D3D"/>
<path d="M261.687 46.4011C261.62 46.3958 261.557 46.3642 261.513 46.3127C261.468 46.2613 261.445 46.1941 261.447 46.1254C261.447 45.9518 261.737 41.847 264.162 39.2739C270.02 33.0453 276.886 38.2528 278.842 39.9376C278.884 39.9832 278.909 40.043 278.91 40.1057C278.912 40.1683 278.891 40.2295 278.852 40.2775C278.812 40.3254 278.757 40.3568 278.696 40.3657C278.636 40.3746 278.574 40.3603 278.523 40.3256C276.637 38.6715 270.07 33.7192 264.551 39.6211C262.256 42.0615 261.976 46.1152 261.976 46.156C261.975 46.1924 261.967 46.2282 261.951 46.2609C261.936 46.2936 261.913 46.3226 261.886 46.3458C261.859 46.369 261.827 46.3859 261.792 46.3955C261.758 46.405 261.722 46.4069 261.687 46.4011Z" fill="#001D3D"/>
<path d="M275.898 56.4285C275.853 58.0349 275.272 59.5772 274.252 60.7987C272.874 62.4529 271.258 61.636 270.928 59.7777C270.599 58.1337 270.928 55.2849 272.665 54.2944C274.401 53.304 275.918 54.5701 275.898 56.4285Z" fill="#FF9800"/>
<path d="M274.102 134.153C274.102 134.153 274.641 193.529 279.671 226.612C283.742 253.334 291.257 315.13 291.257 315.13H302.664C302.664 315.13 303.772 255.468 301.666 229.043C296.447 162.162 309.93 149.653 299.051 134.153H274.102Z" fill="#001D3D"/>
<path opacity="0.1" d="M274.102 134.153C274.102 134.153 274.641 193.529 279.671 226.612C283.742 253.334 291.257 315.13 291.257 315.13H302.664C302.664 315.13 303.772 255.468 301.666 229.043C296.447 162.162 309.93 149.653 299.051 134.153H274.102Z" fill="white"/>
<path opacity="0.3" d="M280.1 161.089C284.092 179.009 280.908 207.232 278.722 219.658C276.407 200.789 275.239 176.334 274.661 158.394C276.726 154.983 278.683 154.759 280.1 161.089Z" fill="#2A292F"/>
<path d="M289.7 315.354H304.221L304.98 310.147L289.62 309.616L289.7 315.354Z" fill="#30B77D"/>
<path d="M293.842 83.9976C295.209 81.2203 302.554 79.4742 306.566 79.4844L309.56 93.1261C309.56 93.1261 301.576 105.267 298.243 103.98C294.321 102.5 290.918 89.9914 293.842 83.9976Z" fill="#30B77D"/>
<path opacity="0.4" d="M293.842 83.9976C295.209 81.2203 302.554 79.4742 306.566 79.4844L309.56 93.1261C309.56 93.1261 301.576 105.267 298.243 103.98C294.321 102.5 290.918 89.9914 293.842 83.9976Z" fill="#2A292F"/>
<path d="M285.379 312.015C285.396 311.986 285.404 311.952 285.404 311.918C285.404 311.884 285.396 311.851 285.379 311.821C285.36 311.782 285.33 311.75 285.292 311.73C285.255 311.71 285.212 311.702 285.169 311.709C284.75 311.78 281.058 312.373 280.559 313.455C280.505 313.553 280.477 313.664 280.477 313.777C280.477 313.889 280.505 314 280.559 314.098C280.644 314.26 280.767 314.397 280.917 314.499C281.067 314.6 281.238 314.662 281.417 314.68C282.625 314.803 284.411 313.087 285.309 312.046L285.379 312.015ZM280.948 313.588C281.287 313.016 283.203 312.485 284.661 312.209C283.343 313.577 282.185 314.343 281.507 314.251C281.389 314.239 281.277 314.198 281.179 314.13C281.082 314.062 281.002 313.971 280.948 313.863C280.926 313.825 280.915 313.781 280.915 313.736C280.915 313.691 280.926 313.647 280.948 313.608C280.948 313.608 280.938 313.598 280.948 313.588Z" fill="#30B77D"/>
<path d="M285.379 312.015C285.396 311.986 285.404 311.952 285.404 311.918C285.404 311.884 285.396 311.851 285.379 311.821C285.319 311.75 283.842 310.004 282.475 309.912C282.278 309.895 282.08 309.92 281.892 309.985C281.705 310.05 281.533 310.154 281.387 310.29C280.978 310.668 281.018 310.994 281.118 311.198C281.547 312.077 284.201 312.383 285.269 312.148C285.297 312.137 285.321 312.119 285.34 312.096C285.36 312.073 285.373 312.045 285.379 312.015ZM281.477 310.729C281.521 310.66 281.574 310.598 281.637 310.545C281.741 310.444 281.865 310.367 282.001 310.319C282.137 310.271 282.282 310.254 282.425 310.269C283.353 310.503 284.187 311.028 284.81 311.77C283.623 311.872 281.706 311.505 281.447 310.974C281.43 310.934 281.424 310.89 281.43 310.847C281.435 310.804 281.451 310.763 281.477 310.729Z" fill="#30B77D"/>
<path d="M294.092 308.391L286.447 311.872L283.044 304.612L278.593 295.116L278.064 294.014L285.708 290.532L286.297 291.777L290.609 300.977L294.092 308.391Z" fill="#FF9800"/>
<path opacity="0.2" d="M290.609 300.978L283.044 304.613L278.593 295.117L286.297 291.778L290.609 300.978Z" fill="#2A292F"/>
<path d="M265.14 134.153C265.14 134.153 240.719 196.317 247.336 225.52C253.324 251.956 279.77 302.019 279.77 302.019L290.02 296.771C290.02 296.771 273.663 236.333 271.896 223.202C268.443 197.675 290.628 161.6 290.628 134.153H265.14Z" fill="#001D3D"/>
<path opacity="0.1" d="M265.14 134.153C265.14 134.153 240.719 196.317 247.336 225.52C253.324 251.956 279.77 302.019 279.77 302.019L290.02 296.771C290.02 296.771 273.663 236.333 271.896 223.202C268.443 197.675 290.628 161.6 290.628 134.153H265.14Z" fill="white"/>
<path d="M285.09 310.78L292.674 305.133C292.802 305.031 292.963 304.98 293.125 304.992C293.287 305.003 293.439 305.075 293.553 305.195L298.792 310.698C298.919 310.842 299.015 311.011 299.074 311.196C299.133 311.38 299.153 311.574 299.133 311.767C299.113 311.96 299.054 312.146 298.959 312.314C298.864 312.482 298.736 312.627 298.582 312.74C295.898 314.66 294.511 315.456 291.177 317.938C289.122 319.469 285.03 322.849 282.195 324.963C279.361 327.076 277.206 324.319 278.204 323.186C282.675 318.081 283.613 314.915 284.311 312.046C284.419 311.544 284.695 311.097 285.09 310.78Z" fill="#001D3D"/>
<path d="M279.112 304.235L292.315 298.057L290.628 292.554L276.487 299.15L279.112 304.235Z" fill="#30B77D"/>
<path d="M271.617 83.3439C270.529 80.444 260.988 77.2174 256.198 76.1963L254.092 92.2477C254.092 92.2477 261.916 103.745 265.339 102.795C269.391 101.672 273.972 89.5623 271.617 83.3439Z" fill="#30B77D"/>
<path opacity="0.4" d="M271.617 83.3439C270.529 80.444 260.988 77.2174 256.198 76.1963L254.092 92.2477C254.092 92.2477 261.916 103.745 265.339 102.795C269.391 101.672 273.972 89.5623 271.617 83.3439Z" fill="#2A292F"/>
<path d="M261.148 82.5371C261.148 82.5371 257.156 83.9666 265.14 134.153H299.071C298.503 120.021 298.483 111.301 305.059 82.2818C300.305 81.2781 295.485 80.6297 290.638 80.3418C285.509 79.9635 280.359 79.9635 275.229 80.3418C268.653 80.934 261.148 82.5371 261.148 82.5371Z" fill="#30B77D"/>
<path opacity="0.4" d="M261.148 82.5371C261.148 82.5371 257.156 83.9666 265.14 134.153H299.071C298.503 120.021 298.483 111.301 305.059 82.2818C300.305 81.2781 295.485 80.6297 290.638 80.3418C285.509 79.9635 280.359 79.9635 275.229 80.3418C268.653 80.934 261.148 82.5371 261.148 82.5371Z" fill="#2A292F"/>
<path d="M299.6 132.121L301.127 135.185C301.247 135.43 300.968 135.675 300.578 135.675H264.97C264.661 135.675 264.411 135.521 264.391 135.317L264.082 132.254C264.082 132.04 264.331 131.856 264.661 131.856H299.002C299.116 131.837 299.233 131.852 299.339 131.9C299.445 131.947 299.536 132.023 299.6 132.121Z" fill="#30B77D"/>
<path opacity="0.3" d="M299.6 132.121L301.127 135.185C301.247 135.43 300.968 135.675 300.578 135.675H264.97C264.661 135.675 264.411 135.521 264.391 135.317L264.082 132.254C264.082 132.04 264.331 131.856 264.661 131.856H299.002C299.116 131.837 299.233 131.852 299.339 131.9C299.445 131.947 299.536 132.023 299.6 132.121Z" fill="white"/>
<path d="M295.01 136.073H295.928C296.117 136.073 296.257 135.971 296.237 135.858L295.808 131.774C295.808 131.651 295.638 131.56 295.459 131.56H294.531C294.351 131.56 294.211 131.651 294.221 131.774L294.65 135.858C294.64 135.95 294.8 136.073 295.01 136.073Z" fill="#001D3D"/>
<path d="M272.665 136.073H273.583C273.763 136.073 273.902 135.971 273.892 135.858L273.463 131.774C273.463 131.651 273.293 131.56 273.104 131.56H272.186C271.996 131.56 271.866 131.651 271.876 131.774L272.305 135.858C272.315 135.95 272.475 136.073 272.665 136.073Z" fill="#001D3D"/>
</svg>
