<svg width="16" height="17" viewBox="0 0 16 17" fill="none" xmlns="http://www.w3.org/2000/svg">
<path d="M6.66634 11.5002L10.6663 8.50016L6.66634 5.50016V11.5002ZM7.99967 1.8335C4.31967 1.8335 1.33301 4.82016 1.33301 8.50016C1.33301 12.1802 4.31967 15.1668 7.99967 15.1668C11.6797 15.1668 14.6663 12.1802 14.6663 8.50016C14.6663 4.82016 11.6797 1.8335 7.99967 1.8335ZM7.99967 13.8335C5.05967 13.8335 2.66634 11.4402 2.66634 8.50016C2.66634 5.56016 5.05967 3.16683 7.99967 3.16683C10.9397 3.16683 13.333 5.56016 13.333 8.50016C13.333 11.4402 10.9397 13.8335 7.99967 13.8335Z" fill="#30B77D"/>
</svg>
