<svg width="20" height="21" viewBox="0 0 20 21" fill="none" xmlns="http://www.w3.org/2000/svg">
<path d="M16.9357 11.418L16.9005 11.6993L17.1238 11.8739L19.2267 13.5183C19.2266 13.5206 19.226 13.5239 19.224 13.5282L17.2289 16.9798L17.2289 16.9798L17.2288 16.9799C17.2264 16.9797 17.2231 16.9793 17.2187 16.9782L14.7481 15.986L14.487 15.8811L14.2618 16.05C13.7676 16.4206 13.2445 16.7369 12.6822 16.9673L12.4175 17.0758L12.3769 17.359L11.9981 20H8.00544L7.62673 17.359L7.58612 17.0758L7.3214 16.9673C6.75561 16.7355 6.23403 16.4286 5.74665 16.0537L5.52037 15.8796L5.25546 15.986L2.7805 16.98C2.77787 16.9799 2.77582 16.9796 2.77435 16.9792L0.779536 13.5282C0.777565 13.5239 0.776988 13.5206 0.776892 13.5183L2.8798 11.8739L3.10309 11.6993L3.06793 11.418C3.02921 11.1082 3.00179 10.801 3.00179 10.5C3.00179 10.199 3.02921 9.89178 3.06793 9.58202L3.10309 9.30074L2.8798 9.12613L0.774787 7.48003L2.77468 4.02022L2.77471 4.02024L2.77478 4.02011C2.77722 4.02029 2.78053 4.02073 2.78491 4.02179L5.25546 5.01398L5.51663 5.11887L5.74179 4.95C6.23594 4.57939 6.75912 4.2631 7.3214 4.03265L7.58612 3.92416L7.62673 3.64097L8.00544 1H11.9981L12.3769 3.64097L12.4175 3.92416L12.6822 4.03265C13.248 4.26454 13.7696 4.5714 14.2569 4.94631L14.4832 5.12037L14.7481 5.01398L17.2231 4.02002C17.2257 4.02011 17.2278 4.02044 17.2292 4.0208L19.224 7.47181C19.226 7.47608 19.2266 7.47944 19.2267 7.48168L17.1238 9.12613L16.9005 9.30075L16.9357 9.58202C16.9744 9.89225 17.0018 10.1893 17.0018 10.5C17.0018 10.8107 16.9744 11.1077 16.9357 11.418ZM15.948 11.2915L15.9481 11.2915L15.9493 11.2798C15.979 10.9827 16.0018 10.7387 16.0018 10.5C16.0018 10.2692 15.9905 10.0381 15.9479 9.70736C15.9478 9.70691 15.9477 9.70646 15.9477 9.70601L15.8427 8.85856L16.5109 8.33301L16.5128 8.3315L17.5828 7.4815L17.9207 7.21311L17.7046 6.83962L17.0046 5.62962L16.7876 5.25453L16.3855 5.41601L15.1155 5.92601L15.1138 5.92667L14.3195 6.24892L13.6366 5.72369L13.6367 5.72366L13.6318 5.72C13.2005 5.39654 12.7648 5.1455 12.2949 4.94878L12.2949 4.94875L12.2897 4.94667L11.4966 4.62494L11.1869 2.43013L11.1262 2H10.6918H9.30179H8.87041L8.80719 2.42673L8.60719 3.77673L8.60718 3.77672L8.60673 3.7799L8.48709 4.62488L7.69384 4.94667L7.69383 4.94666L7.69028 4.94813C7.23494 5.13693 6.78929 5.39953 6.33329 5.73888L6.33328 5.73887L6.33038 5.74107L5.65638 6.25031L4.87902 5.93638L4.87812 5.93601L3.60812 5.42601L3.20599 5.26453L2.989 5.63962L2.289 6.84962L2.07068 7.22701L2.41482 7.49468L3.49269 8.33301L3.49482 8.33468L4.16089 8.85856L4.05559 9.70852L4.05545 9.70851L4.05427 9.72025C4.0245 10.018 4.00179 10.2716 4.00179 10.5C4.00179 10.7281 4.02448 10.9819 4.05412 11.2882L4.05394 11.2882L4.05559 11.3015L4.16089 12.1514L3.49482 12.6753L3.49269 12.677L2.41482 13.5153L2.07068 13.783L2.289 14.1604L2.989 15.3704L3.20599 15.7455L3.60812 15.584L4.87812 15.074L4.87975 15.0733L5.67413 14.7511L6.35694 15.2763L6.35691 15.2763L6.36179 15.28C6.79307 15.6035 7.22878 15.8545 7.69872 16.0512L7.69871 16.0512L7.70384 16.0533L8.49695 16.3751L8.8067 18.5699L8.8674 19H9.30179H10.7018H11.1332L11.1964 18.5733L11.3964 17.2233L11.3969 17.2201L11.5165 16.3751L12.3097 16.0533L12.3098 16.0533L12.3133 16.0519C12.7686 15.8631 13.2143 15.6005 13.6703 15.2611L13.6703 15.2611L13.6732 15.2589L14.3472 14.7497L15.1246 15.0636L15.1255 15.064L16.3955 15.574L16.7976 15.7355L17.0146 15.3604L17.7146 14.1504L17.9329 13.773L17.5888 13.5053L16.5109 12.667L16.5088 12.6653L15.8427 12.1414L15.948 11.2915ZM6.50179 10.5C6.50179 8.56614 8.06793 7 10.0018 7C11.9357 7 13.5018 8.56614 13.5018 10.5C13.5018 12.4339 11.9357 14 10.0018 14C8.06793 14 6.50179 12.4339 6.50179 10.5ZM7.50179 10.5C7.50179 11.8761 8.62565 13 10.0018 13C11.3779 13 12.5018 11.8761 12.5018 10.5C12.5018 9.12386 11.3779 8 10.0018 8C8.62565 8 7.50179 9.12386 7.50179 10.5Z" fill="#2A292F" stroke="#2A292F"/>
</svg>
