<svg width="12" height="15" viewBox="0 0 12 15" fill="none" xmlns="http://www.w3.org/2000/svg">
<path d="M10 10.2465C9.49333 10.2465 9.04 10.4465 8.69333 10.7599L3.94 7.9932C3.97333 7.83986 4 7.68653 4 7.52653C4 7.36653 3.97333 7.2132 3.94 7.05986L8.64 4.31986C9 4.6532 9.47333 4.85986 10 4.85986C11.1067 4.85986 12 3.96653 12 2.85986C12 1.7532 11.1067 0.859863 10 0.859863C8.89333 0.859863 8 1.7532 8 2.85986C8 3.01986 8.02667 3.1732 8.06 3.32653L3.36 6.06653C3 5.7332 2.52667 5.52653 2 5.52653C0.893333 5.52653 0 6.41986 0 7.52653C0 8.6332 0.893333 9.52653 2 9.52653C2.52667 9.52653 3 9.31986 3.36 8.98653L8.10667 11.7599C8.07333 11.8999 8.05333 12.0465 8.05333 12.1932C8.05333 13.2665 8.92667 14.1399 10 14.1399C11.0733 14.1399 11.9467 13.2665 11.9467 12.1932C11.9467 11.1199 11.0733 10.2465 10 10.2465ZM10 2.1932C10.3667 2.1932 10.6667 2.4932 10.6667 2.85986C10.6667 3.22653 10.3667 3.52653 10 3.52653C9.63333 3.52653 9.33333 3.22653 9.33333 2.85986C9.33333 2.4932 9.63333 2.1932 10 2.1932ZM2 8.1932C1.63333 8.1932 1.33333 7.8932 1.33333 7.52653C1.33333 7.15986 1.63333 6.85986 2 6.85986C2.36667 6.85986 2.66667 7.15986 2.66667 7.52653C2.66667 7.8932 2.36667 8.1932 2 8.1932ZM10 12.8732C9.63333 12.8732 9.33333 12.5732 9.33333 12.2065C9.33333 11.8399 9.63333 11.5399 10 11.5399C10.3667 11.5399 10.6667 11.8399 10.6667 12.2065C10.6667 12.5732 10.3667 12.8732 10 12.8732Z" fill="#30B77D"/>
</svg>
