<svg width="54" height="122" viewBox="0 0 54 122" fill="none" xmlns="http://www.w3.org/2000/svg">
<g opacity="0.3">
<circle cx="18.5" cy="120.5" r="1.5" transform="rotate(180 18.5 120.5)" fill="white"/>
<circle cx="35.5" cy="120.5" r="1.5" transform="rotate(180 35.5 120.5)" fill="white"/>
<circle cx="52.5" cy="120.5" r="1.5" transform="rotate(180 52.5 120.5)" fill="white"/>
<circle cx="1.5" cy="120.5" r="1.5" transform="rotate(180 1.5 120.5)" fill="white"/>
<circle cx="18.5" cy="103.5" r="1.5" transform="rotate(180 18.5 103.5)" fill="white"/>
<circle cx="35.5" cy="103.5" r="1.5" transform="rotate(180 35.5 103.5)" fill="white"/>
<circle cx="52.5" cy="103.5" r="1.5" transform="rotate(180 52.5 103.5)" fill="white"/>
<circle cx="1.5" cy="103.5" r="1.5" transform="rotate(180 1.5 103.5)" fill="white"/>
<circle cx="18.5" cy="86.5" r="1.5" transform="rotate(180 18.5 86.5)" fill="white"/>
<circle cx="35.5" cy="86.5" r="1.5" transform="rotate(180 35.5 86.5)" fill="white"/>
<circle cx="52.5" cy="86.5" r="1.5" transform="rotate(180 52.5 86.5)" fill="white"/>
<circle cx="1.5" cy="86.5" r="1.5" transform="rotate(180 1.5 86.5)" fill="white"/>
<circle cx="18.5" cy="69.5" r="1.5" transform="rotate(180 18.5 69.5)" fill="white"/>
<circle cx="35.5" cy="69.5" r="1.5" transform="rotate(180 35.5 69.5)" fill="white"/>
<circle cx="52.5" cy="69.5" r="1.5" transform="rotate(180 52.5 69.5)" fill="white"/>
<circle cx="1.5" cy="69.5" r="1.5" transform="rotate(180 1.5 69.5)" fill="white"/>
<circle cx="18.5" cy="52.5" r="1.5" transform="rotate(180 18.5 52.5)" fill="white"/>
<circle cx="18.5" cy="18.5" r="1.5" transform="rotate(180 18.5 18.5)" fill="white"/>
<circle cx="18.5" cy="1.5" r="1.5" transform="rotate(180 18.5 1.5)" fill="white"/>
<circle cx="35.5" cy="52.5" r="1.5" transform="rotate(180 35.5 52.5)" fill="white"/>
<circle cx="35.5" cy="18.5" r="1.5" transform="rotate(180 35.5 18.5)" fill="white"/>
<circle cx="35.5" cy="1.5" r="1.5" transform="rotate(180 35.5 1.5)" fill="white"/>
<circle cx="52.5" cy="52.5" r="1.5" transform="rotate(180 52.5 52.5)" fill="white"/>
<circle cx="52.5" cy="18.5" r="1.5" transform="rotate(180 52.5 18.5)" fill="white"/>
<circle cx="52.5" cy="1.5" r="1.5" transform="rotate(180 52.5 1.5)" fill="white"/>
<circle cx="1.5" cy="52.5" r="1.5" transform="rotate(180 1.5 52.5)" fill="white"/>
<circle cx="1.5" cy="18.5" r="1.5" transform="rotate(180 1.5 18.5)" fill="white"/>
<circle cx="1.5" cy="1.5" r="1.5" transform="rotate(180 1.5 1.5)" fill="white"/>
<circle cx="18.5" cy="35.5" r="1.5" transform="rotate(180 18.5 35.5)" fill="white"/>
<circle cx="35.5" cy="35.5" r="1.5" transform="rotate(180 35.5 35.5)" fill="white"/>
<circle cx="52.5" cy="35.5" r="1.5" transform="rotate(180 52.5 35.5)" fill="white"/>
<circle cx="1.5" cy="35.5" r="1.5" transform="rotate(180 1.5 35.5)" fill="white"/>
</g>
</svg>
