<svg width="83" height="28" viewBox="0 0 83 28" fill="none" xmlns="http://www.w3.org/2000/svg">
<path d="M32.9303 -0.325684H23.7021L36.4834 14.9044L23.7021 30H32.7774L45.5587 14.9017L32.9303 -0.325684Z" fill="white"/>
<path d="M58.3163 -0.330933H49.0881L42.8148 7.23401L47.3616 12.7193L58.3163 -0.330933Z" fill="white"/>
<path d="M42.7568 22.3349L49.241 29.9948H58.3163L47.2957 16.9762L42.7568 22.3349Z" fill="white"/>
<path d="M13.2126 29.9766H0.156128V-0.330933H13.2126C15.0906 -0.303517 16.6532 -0.0841956 17.9006 0.327033C20.0253 1.02612 21.7456 2.30778 23.0616 4.17202C24.117 5.67986 24.8367 7.31106 25.2205 9.06564C25.6043 10.8202 25.7962 12.4925 25.7962 14.0826C25.7962 18.1127 24.9875 21.5259 23.37 24.3222C21.1768 28.0918 17.791 29.9766 13.2126 29.9766ZM17.9212 7.40016C16.948 5.75525 15.022 4.93279 12.1434 4.93279H6.30399V24.7129H12.1434C15.1317 24.7129 17.2153 23.2393 18.3941 20.2922C19.0384 18.6747 19.3605 16.7488 19.3605 14.5144C19.3605 11.4302 18.8807 9.05878 17.9212 7.40016Z" fill="white"/>
<path d="M82.7721 4.99447H67.5772V11.9648H80.8804V17.2285H67.5772V29.9355H61.2854V-0.330933H82.7721V4.99447Z" fill="white"/>
</svg>
